Season 10 Episode 5 of 8
With Terry Wogan in the voiceover booth, the Geordie duo play an undercover prank on One Direction and present more entertainment, games and surprises. Big Reunion bands Blue, Five and Atomic Kitten perform a medley at the end of the show, and Little Ant and Dec report back from the Britain's Got Talent auditions. Plus, a chance for one member of the studio audience to take home the contents of a commercial break in Win the Ads.







General
Complete name                            : Ant.And.Decs.Saturday.Night.Takeaway.S10E05.WS.PDTV.XviD.REPACK-W33D.avi
Format                                   : AVI
Format/Info                              : Audio Video Interleave
File size                                : 478 MiB
Duration                                 : 59mn 23s
Overall bit rate mode                    : Variable
Overall bit rate                         : 1 125 Kbps

Video
ID                                       : 0
Format                                   : MPEG-4 Visual
Format profile                           : Advanced Simple@L5
Format settings, BVOP                    : 1
Format settings, QPel                    : No
Format settings, GMC                     : No warppoints
Format settings, Matrix                  : Default (H.263)
Codec ID                                 : XVID
Codec ID/Hint                            : XviD
Duration                                 : 59mn 23s
Bit rate                                 : 994 Kbps
Width                                    : 688 pixels
Height                                   : 384 pixels
Display aspect ratio                     : 16:9
Frame rate                               : 25.000 fps
Color space                              : YUV
Chroma subsampling                       : 4:2:0
Bit depth                                : 8 bits
Scan type                                : Progressive
Compression mode                         : Lossy
Bits/(Pixel*Frame)                       : 0.150
Stream size                              : 422 MiB (88%)
Writing library                          : XviD 1.2.1 (UTC 2008-12-04)

Audio
ID                                       : 1
Format                                   : MPEG Audio
Format version                           : Version 1
Format profile                           : Layer 3
Mode                                     : Joint stereo
Mode extension                           : MS Stereo
Codec ID                                 : 55
Codec ID/Hint                            : MP3
Duration                                 : 59mn 23s
Bit rate mode                            : Variable
Bit rate                                 : 118 Kbps
Nominal bit rate                         : 128 Kbps
Channel(s)                               : 2 channels
Sampling rate                            : 48.0 KHz
Compression mode                         : Lossy
Stream size                              : 50.3 MiB (11%)
Alignment                                : Aligned on interleaves
Interleave, duration                     : 24 ms (0.60 video frame)
Interleave, preload duration             : 181 ms
Title                                    : Saturday Night Takeaway 23rd Tc0 L2 2ch 48 192 DELAY 0ms
Writing library                          : LAME3.99r
Encoding settings                        : -m j -V 4 -q 2 -lowpass 17 --abr 128